<svg width="40" height="40" viewBox="0 0 40 40" fill="none" xmlns="http://www.w3.org/2000/svg">
<circle cx="20" cy="20" r="20" fill="#EB5E28"/>
<path d="M20 29C24.9706 29 29 24.9706 29 20C29 15.0294 24.9706 11 20 11C15.0294 11 11 15.0294 11 20C11 24.9706 15.0294 29 20 29Z" stroke="#FFFCF2" stroke-linecap="round" stroke-linejoin="round"/>
<path d="M14.6586 27.2442C15.9936 25.0325 17.8774 23.2034 20.1274 21.9341C22.3774 20.6649 24.9172 19.9986 27.5006 19.9998C28.0065 19.9998 28.5062 20.0245 28.9997 20.0738" stroke="#FFFCF2" stroke-linecap="round" stroke-linejoin="round"/>
<path d="M25.6277 12.9773C24.2224 14.7046 22.4494 16.0966 20.438 17.052C18.4265 18.0074 16.2273 18.502 14.0005 18.4998C13.052 18.5003 12.1056 18.4112 11.1738 18.2339" stroke="#FFFCF2" stroke-linecap="round" stroke-linejoin="round"/>
<path d="M16.056 11.908C18.3115 13.2314 20.1816 15.1218 21.4807 17.3914C22.7798 19.6611 23.4627 22.231 23.4615 24.8462C23.4624 26.0715 23.3134 27.2923 23.018 28.4815" stroke="#FFFCF2" stroke-linecap="round" stroke-linejoin="round"/>
</svg>
