<svg width="40" height="40" viewBox="0 0 40 40" fill="none" xmlns="http://www.w3.org/2000/svg">
<circle cx="20" cy="20" r="20" fill="#EB5E28"/>
<path d="M27.875 11.375H12.125C11.7108 11.375 11.375 11.7108 11.375 12.125V27.875C11.375 28.2892 11.7108 28.625 12.125 28.625H27.875C28.2892 28.625 28.625 28.2892 28.625 27.875V12.125C28.625 11.7108 28.2892 11.375 27.875 11.375Z" stroke="#FFFCF2" stroke-linecap="round" stroke-linejoin="round"/>
<path d="M19.25 18.5001V24.5001" stroke="#FFFCF2" stroke-linecap="round" stroke-linejoin="round"/>
<path d="M16.25 18.5001V24.5001" stroke="#FFFCF2" stroke-linecap="round" stroke-linejoin="round"/>
<path d="M19.25 21.1251C19.25 20.4289 19.5266 19.7612 20.0188 19.2689C20.5111 18.7767 21.1788 18.5001 21.875 18.5001C22.5712 18.5001 23.2389 18.7767 23.7312 19.2689C24.2234 19.7612 24.5 20.4289 24.5 21.1251V24.5001" stroke="#FFFCF2" stroke-linecap="round" stroke-linejoin="round"/>
<path d="M16.25 16.625C16.8713 16.625 17.375 16.1213 17.375 15.5C17.375 14.8787 16.8713 14.375 16.25 14.375C15.6287 14.375 15.125 14.8787 15.125 15.5C15.125 16.1213 15.6287 16.625 16.25 16.625Z" fill="#FFFCF2"/>
</svg>
