<svg width="40" height="40" viewBox="0 0 40 40" fill="none" xmlns="http://www.w3.org/2000/svg">
<circle cx="20" cy="20" r="20" fill="#EB5E28"/>
<path d="M20 16.2503C20.0001 15.3887 20.2968 14.5534 20.8403 13.8848C21.3838 13.2162 22.1409 12.7552 22.9843 12.5791C23.8277 12.4031 24.7061 12.5228 25.4716 12.9181C26.2371 13.3135 26.8432 13.9603 27.188 14.75L30.5 14.75L27.4754 17.7746C27.2785 20.8168 25.9311 23.67 23.707 25.7548C21.4828 27.8397 18.5486 28.9999 15.5 29C12.5 29 11.75 27.875 11.75 27.875C11.75 27.875 14.75 26.75 16.25 24.5C16.25 24.5 10.25 21.5 11.75 13.25C11.75 13.25 15.5 17 19.9987 17.75L20 16.2503Z" stroke="#FFFCF2" stroke-linecap="round" stroke-linejoin="round"/>
</svg>
